<?xml version="1.0" encoding="utf-8"?>
<!-- Generator: Adobe Illustrator 27.4.1, SVG Export Plug-In . SVG Version: 6.00 Build 0)  -->
<svg version="1.1" id="Capa_1" xmlns="http://www.w3.org/2000/svg" xmlns:xlink="http://www.w3.org/1999/xlink" x="0px" y="0px"
	 viewBox="0 0 62.9 75.2" style="enable-background:new 0 0 62.9 75.2;" xml:space="preserve">
<style type="text/css">
	.st0{enable-background:new    ;}
	.st1{fill:#009FE3;}
	.st2{fill:#29235C;}
</style>
<g id="Capa_1_00000046326132710620379910000006319433614833875860_">
	<g class="st0">
		<path class="st1" d="M44,55.1l-0.4,1.7c-1,0.1-1.8,0.2-2.3,0.2c-0.8,0-2-0.1-3.3-0.2c-1.5-0.1-2.8-0.2-3.8-0.2
			c-0.8,0-1.7,0.1-2.6,0.4c0.8-2.2,1.7-5.4,2.7-9.4l2.3-8.8l-7.9,0.3c-1.4,0.1-2.8,0.2-4.3,0.3c-1.3,5.2-2.7,9.1-4.1,11.6
			c-1.4,2.5-3,4.3-4.8,5.5s-3.5,1.8-5.2,1.8c-1.6,0-3-0.4-4.2-1.2c-0.8-0.5-1.3-1.2-1.3-2c0-0.5,0.2-0.9,0.5-1.2
			c0.3-0.3,0.7-0.5,1.2-0.5c0.8,0,1.5,0.5,2.3,1.6c0.5,0.6,0.9,1.1,1.2,1.2c0.3,0.2,0.6,0.3,1,0.3c1.5,0,3-1.2,4.3-3.7
			s3.3-8.5,5.9-18.2l2.9-10.7c-3.9,0-6.8,0.6-8.8,1.9c-2,1.3-2.9,2.7-2.9,4.4c0,0.5,0.3,1.2,0.8,2.1c0.5,0.8,0.7,1.4,0.7,1.9
			c0,0.6-0.2,1-0.5,1.4c-0.4,0.4-0.8,0.5-1.4,0.5c-0.7,0-1.3-0.3-1.8-1c-0.5-0.7-0.7-1.6-0.7-2.9c0-2.3,0.8-4.3,2.5-6
			c1.6-1.7,4-3,7.1-3.7c1.8-0.4,5.4-0.6,10.7-0.6c-1.4,2.8-3.1,7.9-4.8,15.1c5.2,0,9.2-0.2,12.2-0.6c1.7-5.7,3.2-9.6,4.5-11.8
			s2.7-3.8,4.3-4.8c1.6-1,3.4-1.5,5.4-1.5c1.7,0,3,0.3,4,1c0.9,0.7,1.4,1.4,1.4,2.2c0,0.5-0.2,0.9-0.5,1.2c-0.3,0.3-0.8,0.5-1.3,0.5
			c-0.7,0-1.5-0.5-2.3-1.5c-0.9-1-1.7-1.5-2.3-1.5c-1.5,0-2.9,1.4-4.3,4.1c-2.5,4.8-5.5,15.1-8.8,30.6c0.3,0,0.8,0.1,1.4,0.2
			c1.1,0.2,2,0.3,2.7,0.3C42,55.4,42.9,55.3,44,55.1z"/>
	</g>
</g>
<g id="Capa_2_00000072964645134690866340000015340215380062550159_">
	<path class="st1" d="M22.7,36.9c4-2.6,8.1-5.2,12.2-7.7c1.1,0.3,2.3,0.6,3.4,0.9c-4,2.6-8.1,5.2-12.1,7.8c2.2,4.6,4.5,9.2,6.7,13.8
		c-1.2-0.3-2.4-0.6-3.6-1C27.1,46.2,24.9,41.5,22.7,36.9z"/>
	<g class="st0">
		<path class="st2" d="M25.4,39.8L24.6,39c-0.6,0.4-1.2,0.7-1.9,0.6c-0.3,0-0.6-0.1-0.8-0.2c-0.2-0.1-0.4-0.3-0.6-0.5
			c-0.1-0.2-0.2-0.5-0.2-0.7c0-0.2,0.1-0.5,0.2-0.6c0.1-0.2,0.2-0.3,0.4-0.5c0.2-0.1,0.3-0.2,0.5-0.4c-0.2-0.2-0.4-0.5-0.5-0.6
			c-0.1-0.2-0.1-0.4-0.1-0.6c0-0.2,0.1-0.4,0.2-0.6c0.1-0.2,0.3-0.3,0.5-0.4c0.2-0.1,0.5-0.1,0.7-0.1c0.3,0,0.5,0.1,0.7,0.2
			c0.2,0.1,0.4,0.2,0.5,0.4s0.2,0.4,0.1,0.6c0,0.2-0.1,0.4-0.2,0.6c-0.1,0.2-0.2,0.3-0.4,0.4c-0.2,0.1-0.3,0.2-0.6,0.4l1.4,1.3
			c0.2-0.3,0.5-0.6,0.7-1l0.6,0.3c-0.3,0.5-0.5,0.9-0.8,1.2l0.8,0.7L25.4,39.8z M24.1,38.6l-1.5-1.4c-0.2,0.1-0.4,0.3-0.6,0.5
			c-0.1,0.2-0.2,0.4-0.2,0.6c0,0.1,0,0.3,0.1,0.4c0.1,0.1,0.2,0.2,0.3,0.3c0.1,0.1,0.3,0.1,0.5,0.1C23.3,39.1,23.7,38.9,24.1,38.6z
			 M22.4,35.9c0.1,0.1,0.2,0.3,0.4,0.5c0.3-0.1,0.5-0.3,0.7-0.4c0.2-0.1,0.2-0.3,0.2-0.5c0-0.1,0-0.2-0.1-0.3
			c-0.1-0.1-0.1-0.2-0.2-0.2c-0.1-0.1-0.2-0.1-0.4-0.1c-0.2,0-0.4,0-0.6,0.2c-0.1,0.1-0.2,0.3-0.2,0.5
			C22.3,35.7,22.3,35.8,22.4,35.9z"/>
	</g>
</g>
</svg>
