<?xml version="1.0" encoding="UTF-8"?>
<svg id="Capa_1" data-name="Capa 1" xmlns="http://www.w3.org/2000/svg" version="1.1" viewBox="0 0 2512.8 370.1">
  <defs>
    <style>
      .cls-1 {
        fill: #1a9dd9;
      }

      .cls-1, .cls-2 {
        stroke-width: 0px;
      }

      .cls-3 {
        stroke: #179cd9;
        stroke-width: 7px;
      }

      .cls-3, .cls-2 {
        fill: #179cd9;
      }

      .cls-3, .cls-4 {
        stroke-miterlimit: 10;
      }

      .cls-4 {
        fill: #fff;
        stroke: #fff;
        stroke-width: 15px;
      }
    </style>
  </defs>
  <g>
    <path class="cls-1" d="M367.8,58.1c-12-7.9-21.6-11.6-28.8-11.1-12,.9-25.9,22.8-41.8,65.6-9.8,26.7-18.6,55.4-26.3,86.1-32.3,2.6-64.5,2.2-96.8-1.1,12.8-34.8,22-59.4,27.6-73.7,11.6-33,17.4-52.9,17.4-59.5s-1-6.1-2.8-7.7c-5.1-4.1-8.5-6.1-10.3-6.1s-2.9,2.4-5.3,6.1c-1.8,2.8-7.9,12.1-16.6,17.5-4.2,2.6-6.2,3.9-7.8,4.5-3,1.1-5.8,1.6-6.6,3.8-.4,1-.3,2,0,2.6.6,1,1.3,1.4,1.7,1.6,1,.5,1.9.3,5.6-.4,1.7-.3,2.6-.5,2.6-.5,3.6-.9,5.5-1.3,8-2.1,2.4-.8,5.3-1.9,8.6-3.5-2.4,10.6-8.1,29.4-17.3,56.4-8.8,25.9-16.1,45.8-21.9,59.7-16.7-.5-25.1,3.4-25.1,11.9s3.1,12.8,9.4,26.8c-6.3,19.1-12.9,33.1-19.9,41.9.5-2.4-.8-5.4-3.7-8.8-4.3-5.2-7.2-7.8-8.7-7.8s-3.2,1.9-3.2,5.7c0,8.3-.1,13-.4,14.2-4,9.6-7.6,17.2-10.7,22.8-1.7,3.8-2.5,6.8-2.5,9,0,3.8,5.9,7.8,17.8,12.1,5.3,1.9,9.8-.3,13.5-6.7,4-6.9,10.9-21.6,20.7-44.1,9.8-22.5,17.2-40.9,22.3-55,22.1-4.2,55.3-4.8,99.8-1.9-8.4,39.2-12.6,66.4-12.6,81.7s1.2,12.9,3.6,14.4c8.9,5.2,14.4,7.8,16.4,7.8s4.4-3.8,5.3-11.5c.9-6.6,3.7-16.1,8.2-28.3.2-.8,3.6-9.4,10.1-26,.9-2.7,1.4-4.8,1.4-6.3s-.7-3.1-2.1-3.1c-2.5,0-4.9,2.2-7.3,6.5l-12.1,22.8c12-57.9,25-105.8,39-143.7,11-29.9,20.8-49.1,29.2-57.8,3.6-3.6,7.2-5.6,11-6.1-1.4.3,1.5.4,8.7.4s7.1-1.2,7.1-3.6-1.4-3.6-4.3-5.4Z"/>
    <path class="cls-2" d="M113.3,328.7c-1.9,0-3.6-.4-4.9-.9-14.1-5-20.4-9.9-20.4-15.8s.9-6.2,2.8-10.6l.2-.3c2.9-5.4,6.4-12.7,10.3-21.9,0-.9.2-3.7.2-13.1s5.5-9.7,7.2-9.7c2.6,0,5.5,1.6,11.8,9.3.7.9,1.4,1.7,1.9,2.5,4.9-8.1,9.8-19.1,14.4-32.8-8.2-18.4-9.1-24.2-9.1-27s1.4-7.3,4-9.8c4.2-4.1,11.5-6.1,22.3-6.1h.1c5.6-13.6,12.6-32.8,20.8-56.9,7.1-21.2,12.2-37.4,15.2-48.4-.5.2-1,.4-1.6.5-2.5.8-4.4,1.3-7.7,2h-.6c0,.1-.9.4-2.8.7-4,.8-5.9,1.1-8.1,0-1.3-.6-2.5-1.6-3.3-3l-.4-.6-.2-.6c-.5-1.8-.4-3.5.3-5.1,1.4-3.5,4.7-4.6,7.4-5.5.5-.2,1-.3,1.5-.5,1.2-.5,3.3-1.8,7.1-4.1,5.3-3.3,10.5-8.8,15.4-16.3.6-.8,1-1.7,1.4-2.4,1.5-2.5,3.3-5.6,7.3-5.6s5.1.8,12.8,7c2.9,2.3,4.3,6,4.3,10.8s-1.8,15.8-17.7,60.8h0c-5.3,13.6-13.9,36.7-25.8,68.9,29.3,2.7,58.9,3,88.1.9,7.5-29.7,16.2-57.9,25.8-83.7,16.9-45.5,31.3-67.2,45.3-68.2,8.2-.6,18.5,3.3,31.3,11.7,4,2.6,6.1,5.5,6.1,8.7s-1.1,7.6-11.1,7.6-5.3,0-6.9,0c-.7,0-1.5,0-2.3-.2-2.6.6-5.2,2.2-7.8,4.8-8,8.2-17.5,27.2-28.3,56.4-11.6,31.3-22.6,70-32.8,115.4,1.8-2.7,4.9-6.4,9.5-6.4s6.1,2.2,6.1,7.1-.5,4.5-1.7,7.6h0c-8.3,21.3-9.9,25.4-10.1,25.9v.2c-4.4,11.9-7.1,21.2-8,27.5-.5,4-1.9,14.9-9.3,14.9s-5.8-1-18.4-8.4c-3.8-2.3-5.5-7.7-5.5-17.8,0-14.9,4-41.2,11.8-78-40.2-2.5-71.1-1.9-92,1.7-5.1,13.9-12.4,31.7-21.6,53.1-9.9,22.9-16.8,37.4-20.9,44.5-4.3,7.4-9.3,9.3-13.4,9.3ZM96,312s.8,3.2,15.1,8.3c1.6.6,4.9,1.7,8.7-4.9,4-6.8,10.9-21.5,20.5-43.7,9.7-22.3,17.2-40.7,22.2-54.8l.8-2.1,2.2-.4c22.3-4.3,56.2-4.9,100.8-2l4.6.3-1,4.5c-8.3,38.7-12.5,65.9-12.5,80.9s1.5,10.7,1.7,10.9c8.9,5.2,12.4,6.7,13.7,7.1.4-.8,1.3-2.8,1.9-7.8,1-7,3.7-16.5,8.4-29.1.2-.6,1.1-3.1,10.2-26.1.2-.6.4-1.2.5-1.7-.4.6-.8,1.2-1.3,2.1l-25.2,47.4,5.7-27.4c12-57.8,25.1-106.4,39.1-144.3,11.3-30.7,21.2-50,30.1-59.2,4.2-4.2,8.7-6.7,13.4-7.3l1.2,7.9c1.2-.2,3-1.6,2.9-3.9s-1.9-3.6-3.2-3.8c.3,0,1.6.1,8.2.1s2,0,2.6-.2c-.4-.4-.9-.8-1.9-1.4h0c-11.2-7.4-20-10.9-26.3-10.5-5.7.4-18.4,9.2-38.3,63-9.7,26.4-18.6,55.2-26.2,85.7l-.7,2.8-2.9.2c-32.4,2.6-65.2,2.2-97.5-1.2l-5.1-.5,1.8-4.8c12.8-34.7,22-59.5,27.6-73.7,14.2-40.4,17.2-53.9,17.2-58.1s-.2-3.6-1.4-4.5c-4.2-3.4-6.4-4.6-7.3-5-.3.4-.6.9-.8,1.4-.5.8-1,1.7-1.6,2.7-2.1,3.2-8.4,12.8-17.8,18.7-3.3,2.1-5.3,3.3-7,4.2,3.1-.7,4.8-1.1,6.9-1.8,2.8-.9,5.5-2,8.1-3.3l7.5-3.7-1.8,8.1c-2.4,10.7-8.2,29.8-17.4,56.9-8.8,25.9-16.2,46-22,60l-1.1,2.5h-2.8c-12.4-.5-17.4,1.8-19.4,3.7-1.1,1.1-1.6,2.4-1.6,4.1s1.2,7.5,9.1,25.2l.6,1.4-.5,1.5c-6.4,19.5-13.3,34-20.6,43.1l-10.2,12.8,3.1-16.1c.2-.8-.5-2.7-2.8-5.4h0c-2.3-2.9-3.8-4.5-4.8-5.4,0,.2,0,.4,0,.7,0,11.3-.2,13.9-.4,15v.4c0,0-.2.4-.2.4-4,9.6-7.7,17.3-10.8,23-1.8,4.2-2.1,6.3-2.1,7.2h0Z"/>
  </g>
  <g>
    <path class="cls-3" d="M223.3,283.8c-17.3-21.5-31.8-45-47.7-67.5-1.1-1.5-1.9-2.7-2.3-3.3-.7-1.1-1.5-1.8-2.2-2.4-5.3-4.1-13-1.2-14.1-.8-.4.1-.9.2-1.4.2-.4,0-.8,0-1.2,0-8,1.2-17.6,3.4-18,7.3-.4,3.3,6.6,5.3,15.3,10.8,9.2,5.8,16.6,15.1,31.6,33.6,8.4,10.4,14.8,19.6,18,24.5,3.1,4.8,4.7,7.1,4.9,7.5,4,7.1,4.1,11.3,7.3,11.3s4.7-.5,8.2-1.6c4.7-1.5,7.1-3.4,7.1-5.7,0-5.2-3.2-11.2-5.3-13.9Z"/>
    <path class="cls-3" d="M274.4,109.6c-5.8-3.7-10.3-4.7-13.5-3.2-2.6,1.3-4.5,4.5-5.9,9.8-4.4,7.1-16.3,18.6-35.7,34.4-19.4,15.8-37.9,29.4-55.5,40.5-3.4,2.1-5,3.8-4.9,5.1.3.7,2,2.3,5.2,5,.2.2.5.4.7.6,1,.3,1.9.6,3.1.6,1.1-.3,2.3-.6,3.5-.9,1.1-.5,2.2-.9,3.3-1.2,0,0,.3-.1.5-.2,2-.8,3.9-.3,4.3-.2,3.2.7,12.5-4.2,13.5-4.7,7.2-3.8,13.6-7.8,18.5-11,24.8-19.5,45.2-36.3,61.3-50.3,9-8.2,12.8-13.7,11.4-16.5-.7-1.5-4-4-9.8-7.7Z"/>
  </g>
  <path class="cls-2" d="M357.8,70.8c3.2,0,3.2-5,0-5s-3.2,5,0,5h0Z"/>
  <path class="cls-2" d="M359.6,69.6c3.2,0,3.2-5,0-5s-3.2,5,0,5h0Z"/>
  <path class="cls-2" d="M357.5,70.8c3.2,0,3.2-5,0-5s-3.2,5,0,5h0Z"/>
  <g>
    <path class="cls-4" d="M541.6,151.6c-3.7,15.2-8.1,26.9-13,35.1-2.3,3.9-4.5,5.8-6.7,5.8s-1.9-.2-3.2-.6c-5.9-1.8-8.9-3.9-8.9-6.4s.8-2.1,2.5-2.5c6.8-10.3,10.9-22.6,12.1-37-4.3-3.8-8.3-5.7-12.1-5.7-8.1,0-17.7,7-28.7,21.4-10.2,13.4-19,29.3-26.5,47.6-7.8,19.1-11.5,35.1-11.2,47.9,0,7.4,2.3,12.9,6.7,16.6,3.2,2.6,6.8,4,10.9,4s5-.5,8.1-1.4c7.5-2.3,16.1-6.8,25.9-13.5,9.3-6.4,17.1-12.9,23.3-19.5,1.9-2.1,3.1-4.8,3.5-8.1.2-1.7,1-2.6,2.3-2.6s1.9.7,2.5,2.1c2.8,7,4.2,11.9,4.2,14.6s-1,5-3.2,7.2c-1.4,1.4-4.7,4.1-9.9,8.1-16.5,12.4-30.7,20.1-42.5,23.1-3.7.9-7,1.4-10,1.4-6.4,0-11.2-2.1-14.6-6.4-15.2-5.7-22.8-14.4-22.8-26,0-18.8,4.9-39.1,14.8-60.7,8.5-18.8,18.9-35.3,31.4-49.5,12-13.6,21.7-20.7,29.2-21.2,2.7-.2,5.9.9,9.5,3.4.5.3,4.1,3.2,10.9,8.8.4-3.1,1.4-4.7,3.2-4.7s5,1.7,9.5,5.1c2.8,2.2,4.2,4.3,4.2,6.3s-.4,3.8-1.3,7.4Z"/>
    <path class="cls-4" d="M688.5,152.8c-2.8,24.3-10.9,50.7-24.2,79.3-17.4,37.5-36.5,56.7-57.5,57.5-4,.2-7.9-.2-11.6-.9-4.2-.8-6-1.8-5.5-3.2-12.8-3.1-21.6-6.7-26.5-10.9-6.8-5.7-10-14.4-9.6-26.3.8-22.6,7.5-46.7,20.2-72.5,10.2-20.7,20-35.4,29.5-44.1,4-3.7,7.6-5.5,11-5.5s6.7.9,10.2,2.8c1.4.8,5.8,3.7,13.3,8.6,6.1-6.6,11.2-11.4,15.5-14.4,2.6-1.7,5.2-2.6,7.9-2.6,4.6,0,8.7,2.3,12.4,6.9,6.5.4,10.6,1.2,12.5,2.6,2.3,1.5,3.4,4.6,3.4,9.3s-.3,7.1-1,13.2ZM673,143c.4-5.8-1-8.8-4.1-8.8s-6.2,1.8-11.2,5.3c-11.2,7.7-24.7,19.1-40.6,34.1-1.8,1.7-3.4,2.6-4.8,2.7-1.3.2-2-.4-2-1.8s.6-2.7,1.8-4.4c6.8-10.6,13.7-19.8,20.8-27.5-4-3-7.7-4.6-10.9-4.6s-3.7.6-5.1,1.8c-8.6,6.3-18.4,20.3-29.3,41.9-13,25.6-19,48.1-18.1,67.4.4,7.9,1.9,13.8,4.6,17.9,2.3,3.5,6.5,6.8,12.5,9.8,4.7,2.4,9.4,3.4,14,2.9,15.9-1.7,31.6-17.9,47.2-48.7,14.8-29.3,23.2-58.6,25.3-87.9Z"/>
    <path class="cls-4" d="M864,134.9c1.1,1.2,1.6,2.6,1.6,4.1,0,2.7-2.1,6.5-6.2,11.3-3.1,3.3-6.2,6.6-9.3,9.9-6.3,17.8-12.1,37-17.4,57.5-6.3,24.3-9.6,42.1-9.8,53.3,1.3,3.6,2,6,2,7.2,0,3.1-2.9,6.6-8.6,10.5-1.1.7-2.1,1.1-3.2,1.1s-2.6-.7-3.7-2.1c-.8-.9-1.5-1.7-2.2-2.6-1.2-.8-1.2-4.1,0-10-6.8-18.1-16.5-38.7-28.8-61.9-10.7-19.9-18.3-32.8-22.9-38.5-3.2,10.3-9,26.1-17.4,47.5-4.4,11.4-8.9,22.8-13.4,34.2,2.1-.8,5.4,3.2,9.8,11.9.5.9.7,1.6.7,2.1,0,1.3-1.1,2-3.4,2.1,1.5,0-.4-.1-5.6-.1s-8.9,1.7-12.3,5l-2.9,6.7c-1.4,3.3-3.4,4.9-6,4.9s-2.2-.3-3.5-.8c-7.9-3.2-11.9-6.3-11.8-9.5.2-4,6.3-9.7,18.4-17,6.4-11.4,14.5-29.8,24.4-55.2,7.9-20.2,13.1-34.4,15.5-42.6-5.4-8.7-11-14.7-16.7-17.9-2.2-1.2-4.1-1.8-5.7-1.8-3.3,0-7.8,2.1-13.4,6.3-1.5,1.1-2.9,1.6-4.3,1.6s-2.7-.8-2.7-2.5.8-2.9,2.5-4.4c8.6-8.2,13.9-13.2,15.9-14.7,4.4-3.5,8.1-5.1,11.1-4.7,4.7.5,11,6.2,18.7,16.9,1.6-4,2.1-7.2,1.4-9.3,0-.4-.1-.7-.1-1.1,0-1,.4-1.5,1.3-1.5,1.5,0,3.7,1.3,6.8,3.9,1.6,1.3,2.3,3.2,2.3,5.5s-.5,4.4-1.5,7.5c-.9,2.3-1.7,4.6-2.5,6.9,10.6,14.8,21.5,32.5,32.8,53,10.3,19,17.3,33.6,20.9,43.8,2.7-17.7,9.3-46.8,19.8-87.5-1.9-1.2-4.4-3.2-7.4-5.7-1.3-1.4-2-2.6-2-3.5,0-1.3,1.3-1.9,4-1.7,2.7.2,9.3-6.4,19.9-19.9,2.4-3,4.4-4.4,6.1-4.4s5.2,2.1,8.8,6.2Z"/>
    <path class="cls-4" d="M961.8,250.8c0,14.1-7.2,25.4-21.5,34-4.1,6.5-9.5,9.6-16,9.6-11.6-.2-24.5-5.3-38.8-15.5-12.2-8.7-20.7-17.1-25.3-25.2-4.4-7.5-6.7-12.3-6.7-14.2s1.8-5.1,5.3-8.2c3.3-2.9,5.8-4.3,7.7-4.3s2.7,1.2,2.7,3.5-.2,2.3-.6,3.7c4.1,11.2,12.8,21.6,26.1,31.3,13.3,9.7,25.4,14.4,36.2,14.4,9.6,0,14.4-6.6,14.4-19.6s-5.6-21.5-16.8-42.9c-11.2-21.4-16.8-36.8-16.8-46s1.7-11.5,5.1-16.2c2.9-4,7.9-8.7,15.2-14.1,1.3-1,2.6-1.5,4-1.5,2.1,0,3.2.9,3.2,2.7s-.7,2.5-2.1,3.9c-6,5.7-9,12.6-9,20.8s5.6,24.1,16.8,45.1c11.2,20.9,16.8,34,16.8,39.1ZM996.7,143.7c-3,10.7-7.2,19.9-12.4,27.8-2.3,3.5-4.6,5.3-6.7,5.3s-5.6-1.7-10.6-5c-1.6-1-2.3-2.1-2.3-3.2,0-1.6,1.4-2.8,4.1-3.5,2-.6,4.3-4.2,6.9-10.6,2.4-6.1,3.6-11,3.6-14.5s-1.4-5.5-4.3-5.5-2.3.2-3.9.5c-3,.5-9.6,2.5-19.6,6.2-1.2.4-2.2.6-3.2.6-2.3,0-3.5-.8-3.5-2.3s1.2-2.8,3.6-4c8.7-4.4,17.3-8,25.8-11,2.7-1,4.7-1.5,5.8-1.5,1.8,0,4.1,2.5,7,7.5,4.4,1.3,7,2.3,8.1,2.9,1.7,1,2.6,2.6,2.6,4.7s-.4,3.4-1.1,5.7Z"/>
    <path class="cls-4" d="M1145.2,137.2c.2.7.2,1.3.2,1.9,0,2.3-1.4,3.8-4.2,4.6-.2,0-2.8.5-8.1,1.3-13.8,1.9-27.9,3.5-42.5,4.8-6.1,13.2-13.7,34.5-22.6,64-8.2,26.9-14.3,49.4-18.2,67.5-1.3,5.8-3.3,8.8-5.8,8.8s-4.9-.9-9.9-2.6c-1.8-.5-2.8-1.6-2.9-3.2.2,1.6.2-.8.2-7.1,0-11.4,1.8-21.9,5.5-31.3,1.4-3.5,3-5.3,4.7-5.3s1.4.2,2.7.5c1.4.4,2.5.6,3.3.6,2.1-7.9,7.1-23.6,14.9-47,8.9-26.5,13.7-41,14.5-43.5-12,.9-24,2.8-36,5.6-13.3,3.3-22,6.7-26.1,10.4-4.7,4.2-7,8.4-7,12.5s2.6,11.4,7.7,20.8c.5,1,.8,1.9.8,2.8,0,1.9-.9,2.9-2.7,2.9s-2.4-.7-3.4-2.2c-6.1-8.8-10.2-15.6-12-20.5-1.3-3.4-2.3-8.4-2.8-14.8-.9-9.5,7-16.5,23.5-21,21.5-5.8,43.1-9.7,65-11.7,2.5-5.1,4.3-7.6,5.5-7.6,1.8,0,4.8,1.9,9.1,5.8,2,0,8.3-.8,18.8-2.3,1.9-.3,3.8-1.7,5.7-4.1,1.7-2.3,5.8-3.5,12.3-3.9,3.5-.2,5.9,1.2,7.2,4,.2.4,1.1,3.5,2.6,9.5Z"/>
    <path class="cls-4" d="M1304.9,298.1c-6.8,12.1-13.1,18.3-18.7,18.7-3.4.2-7.5-1.7-12.3-5.7-28.3-24.5-56.6-56.5-84.9-95.8-2.6,9.3-7.2,22.1-13.7,38.5-5.9,14.9-10.4,25.5-13.5,31.8-1.7,3.4-3.4,5.1-5.1,5.1s-2.1-.5-3.5-1.5c-5.1-3.8-7.6-7-7.6-9.5s.5-3.3,1.4-5.6c2-4.5,4.2-10.6,6.4-18.2,0-1.9.2-3.9.2-5.7.2-1.3.8-2.1,2-2.5,1-.2,3.2,2.3,6.7,7.5,5.9-12.5,12.5-29,19.8-49.5-4.2-6.5-6.3-10.4-6.3-11.9s3.7-3,11.1-3.6c3.3-9.5,6.8-21.6,10.7-36.4-12.8,4.8-22.3,9-28.5,12.4-9.6,5.2-17.1,11.4-22.6,18.6-2.3,3-3.5,6.4-3.5,10.3s1.5,9,4.4,17.9c.9,2.6.1,3.9-2.2,3.9s-2.7-.8-3.7-2.3c-4.5-6.8-8.1-13.7-10.7-20.7-1.9-4.8-2.8-7.9-2.8-9.3,0-4,2.8-8.5,8.3-13.5,15.7-14.5,37.1-25.8,64.1-34,.4-.7,1-3.5,1.8-8.3.6-3.7,1.6-5.5,2.8-5.4,1.5.2,3.9,3.4,7.1,9.6,17.8-4.3,29-6.3,33.5-6,7,.5,12.4,5.4,16.2,14.8,4.7,3.3,7.9,6.1,9.3,8.4,2.1,3,3.2,6.9,3.2,11.9,0,8.6-5.3,19.5-15.9,32.7-10.8,13.5-20.1,20.2-27.9,20.2s-8.2-1-11.9-3c-2.8-1.9-5.6-3.7-8.4-5.6-1.1-.7-1.6-1.5-1.6-2.5,0-2,1.3-3,3.9-3s1.9.3,4,1c2,.7,3.8,1,5.4,1,7.7,0,16.4-6.3,26.1-18.8,8.8-11.2,13.2-20.5,13.2-27.9s-6.2-13.4-18.7-13.4-21.9,2.5-34.4,7.5c-3.6,15.6-7.9,30.9-13.1,45.9,15.3,23,32.8,45.2,52.3,66.7,20.9,22.9,35.2,34.6,42.8,35.1,3.2.2,6.5-.9,9.8-3.5,1.4-1.2,2.7-1.8,3.9-1.8s2.3.7,2.3,2.2-.4,2.2-1.2,3.5Z"/>
    <path class="cls-4" d="M1487.2,138.6c.6.5.9,1.1.9,1.6,0,1.6-1.2,2.5-3.6,2.5s-1.5-.1-2.7-.4c-1.2-.2-2.1-.4-2.7-.4-3.5,0-7,3.4-10.6,10.3-16.4,31.1-27.5,67.4-33.3,108.8,1.2-3.3,2.5-6,3.9-8.1,1.2-1.8,2.5-3.6,3.7-5.4,1-1.6,2.1-2.3,3.3-2.3s2,.9,2,2.7-.3,2.2-.9,3.5c-5.1,11.1-8.6,22.2-10.5,33.3-.7,4.3-2.3,6.4-4.9,6.4s-6.7-2.1-11.8-6.4c-3.3-2.7-4.9-4.6-4.9-5.5s.2-1,.5-2.1c.3-1.1.6-2.2.8-3.4,2.3-16.9,6.9-38.3,13.9-64.3-17,31-32.8,54.9-47.6,71.7-4.5,5.1-9.3,7.7-14.2,7.7s-9.3-2.3-12.7-7c-8.1-6.4-12.9-10.6-14.4-12.6-3-4-4.4-10.1-4.4-18.1s0-3.7.1-5.8c.6-11.5,3.9-26.7,9.9-45.6,5.9-18.6,12.7-35.5,20.4-50.8-21.6,7.1-36.8,13.8-45.6,20.1-4.2,3-6.3,6.1-6.3,9.3,0,0,1.1,4.1,3.3,12.5,0,.4.1.8.1,1.2,0,1.4-.7,2.1-2,2.1-2.3,0-4.2-1.4-5.8-4.2-6.6-11.3-9.9-19.3-9.9-24s4.4-11,13.3-13.8c15.2-4,34.3-9.6,57.3-16.7,3.7-5.8,7.1-8.8,10.2-8.8s8.3,3.1,14.7,9.2c.9.9,1.4,1.6,1.4,2.3,0,1.6-3.7,3.2-11,4.8-9.4,15.4-17.6,35.2-24.5,59.3-6.1,21.1-9.4,38.3-9.9,51.7-.2,6.8,1.2,12.3,4.2,16.3,2.7,3.7,6.2,5.6,10.4,5.6s7.6-1.8,10.7-5.5c13.8-16.2,27-35.2,39.8-57,8.9-15.3,20.2-36.8,33.9-64.8,3.2-6.5,6.7-12.5,10.5-18.1,1.7-2.5,3.7-3.7,6.1-3.7,3.7,0,10.2,3.9,19.3,11.8Z"/>
    <path class="cls-4" d="M1583.1,151.6c-3.7,15.2-8.1,26.9-13,35.1-2.3,3.9-4.5,5.8-6.7,5.8s-1.9-.2-3.2-.6c-5.9-1.8-8.9-3.9-8.9-6.4s.8-2.1,2.5-2.5c6.8-10.3,10.9-22.6,12.1-37-4.3-3.8-8.3-5.7-12.1-5.7-8.1,0-17.7,7-28.7,21.4-10.2,13.4-19,29.3-26.5,47.6-7.8,19.1-11.5,35.1-11.2,47.9,0,7.4,2.3,12.9,6.7,16.6,3.2,2.6,6.8,4,10.9,4s5-.5,8.1-1.4c7.5-2.3,16.1-6.8,25.9-13.5,9.3-6.4,17.1-12.9,23.3-19.5,1.9-2.1,3.1-4.8,3.5-8.1.2-1.7,1-2.6,2.3-2.6s1.9.7,2.5,2.1c2.8,7,4.2,11.9,4.2,14.6s-1.1,5-3.2,7.2c-1.4,1.4-4.7,4.1-9.9,8.1-16.5,12.4-30.7,20.1-42.5,23.1-3.7.9-7,1.4-10,1.4-6.4,0-11.2-2.1-14.6-6.4-15.2-5.7-22.8-14.4-22.8-26,0-18.8,4.9-39.1,14.8-60.7,8.5-18.8,18.9-35.3,31.4-49.5,12-13.6,21.7-20.7,29.2-21.2,2.7-.2,5.9.9,9.5,3.4.5.3,4.1,3.2,10.9,8.8.4-3.1,1.4-4.7,3.2-4.7s5,1.7,9.5,5.1c2.8,2.2,4.2,4.3,4.2,6.3s-.4,3.8-1.3,7.4Z"/>
    <path class="cls-4" d="M1703.8,151.6c-3.7,15.2-8.1,26.9-13,35.1-2.3,3.9-4.5,5.8-6.7,5.8s-1.9-.2-3.2-.6c-5.9-1.8-8.9-3.9-8.9-6.4s.8-2.1,2.5-2.5c6.8-10.3,10.9-22.6,12.1-37-4.3-3.8-8.3-5.7-12.1-5.7-8.1,0-17.7,7-28.7,21.4-10.2,13.4-19,29.3-26.5,47.6-7.8,19.1-11.5,35.1-11.2,47.9,0,7.4,2.3,12.9,6.7,16.6,3.2,2.6,6.8,4,10.9,4s5-.5,8.1-1.4c7.5-2.3,16.1-6.8,25.9-13.5,9.3-6.4,17.1-12.9,23.3-19.5,1.9-2.1,3.1-4.8,3.5-8.1.2-1.7,1-2.6,2.3-2.6s1.9.7,2.5,2.1c2.8,7,4.2,11.9,4.2,14.6s-1.1,5-3.2,7.2c-1.4,1.4-4.7,4.1-9.9,8.1-16.5,12.4-30.7,20.1-42.5,23.1-3.7.9-7,1.4-10,1.4-6.4,0-11.2-2.1-14.6-6.4-15.2-5.7-22.8-14.4-22.8-26,0-18.8,4.9-39.1,14.8-60.7,8.5-18.8,18.9-35.3,31.4-49.5,12-13.6,21.7-20.7,29.2-21.2,2.7-.2,5.9.9,9.5,3.4.5.3,4.1,3.2,10.9,8.8.4-3.1,1.4-4.7,3.2-4.7s5,1.7,9.5,5.1c2.8,2.2,4.2,4.3,4.2,6.3s-.4,3.8-1.3,7.4Z"/>
    <path class="cls-4" d="M1803.8,166.7c-2.7,22.6-9.9,47.9-21.5,75.6-13.6,32.8-26.8,49.2-39.6,49.4-7.7,0-17.1-4-28.1-12.4-.9-.7-1.3-1.6-1.3-2.7,0-2.7,1.2-4.1,3.7-4.1s1.2.2,1.9.5c6.7,3.4,12.4,5.2,17.2,5.3,10.3.3,21.8-15.1,34.2-46.1,11.9-30,18.3-56.8,19.1-80.5.2-7.7-3.6-11.6-11.4-11.6s-2.6.1-4.1.4c-6.1.9-13,5.7-20.7,14.5-8.6,9.8-14.6,21-18.1,33.5-.5,1.6-.7,3.2-.7,4.7,0,2.9,1,5.5,2.9,7.9,1.8,1.8,3.6,3.6,5.4,5.4.9.9,1.3,1.6,1.3,2.3,0,1.5-1.2,2.2-3.5,2.2s-1.7-.2-2.3-.5c-6.7-4-11.3-7.2-13.8-9.7-3-3-4.4-6.5-4.4-10.4s1.4-8.7,4.2-15.1c4-9.4,10.1-18.6,18.1-27.7,7.6-8.6,14.5-14.2,20.5-16.8,2.8-1.2,8.6-.5,17.3,2.1.5-.7,1.4-1.1,2.5-1.1,3,0,9,2.9,17.9,8.8,4,2.6,5.1,11.2,3.4,26Z"/>
    <path class="cls-4" d="M1949.8,152.8c-2.8,24.3-10.9,50.7-24.2,79.3-17.4,37.5-36.5,56.7-57.5,57.5-4,.2-7.9-.2-11.6-.9-4.2-.8-6-1.8-5.5-3.2-12.8-3.1-21.6-6.7-26.5-10.9-6.8-5.7-10-14.4-9.6-26.3.8-22.6,7.5-46.7,20.2-72.5,10.2-20.7,20-35.4,29.5-44.1,4-3.7,7.6-5.5,11-5.5s6.7.9,10.2,2.8c1.4.8,5.8,3.7,13.3,8.6,6.1-6.6,11.2-11.4,15.5-14.4,2.6-1.7,5.2-2.6,7.9-2.6,4.6,0,8.7,2.3,12.4,6.9,6.5.4,10.6,1.2,12.5,2.6,2.3,1.5,3.4,4.6,3.4,9.3s-.4,7.1-1.1,13.2ZM1934.3,143c.4-5.8-1-8.8-4.1-8.8s-6.2,1.8-11.2,5.3c-11.2,7.7-24.7,19.1-40.6,34.1-1.8,1.7-3.4,2.6-4.8,2.7-1.3.2-2-.4-2-1.8s.6-2.7,1.8-4.4c6.8-10.6,13.7-19.8,20.8-27.5-4-3-7.7-4.6-10.9-4.6s-3.7.6-5.1,1.8c-8.6,6.3-18.4,20.3-29.3,41.9-13,25.6-19,48.1-18.1,67.4.4,7.9,1.9,13.8,4.6,17.9,2.3,3.5,6.5,6.8,12.5,9.8,4.7,2.4,9.4,3.4,14,2.9,15.9-1.7,31.6-17.9,47.2-48.7,14.8-29.3,23.2-58.6,25.3-87.9Z"/>
    <path class="cls-4" d="M2125.2,134.9c1.1,1.2,1.6,2.6,1.6,4.1,0,2.7-2.1,6.5-6.2,11.3-3.1,3.3-6.2,6.6-9.3,9.9-6.3,17.8-12.1,37-17.4,57.5-6.3,24.3-9.6,42.1-9.8,53.3,1.3,3.6,2,6,2,7.2,0,3.1-2.9,6.6-8.6,10.5-1.1.7-2.1,1.1-3.2,1.1s-2.6-.7-3.7-2.1c-.8-.9-1.5-1.7-2.2-2.6-1.2-.8-1.2-4.1,0-10-6.8-18.1-16.5-38.7-28.8-61.9-10.7-19.9-18.3-32.8-22.9-38.5-3.2,10.3-9,26.1-17.4,47.5-4.4,11.4-8.9,22.8-13.4,34.2,2.1-.8,5.4,3.2,9.8,11.9.5.9.7,1.6.7,2.1,0,1.3-1.1,2-3.4,2.1,1.5,0-.4-.1-5.6-.1s-8.9,1.7-12.3,5l-2.9,6.7c-1.4,3.3-3.4,4.9-6,4.9s-2.2-.3-3.5-.8c-7.9-3.2-11.9-6.3-11.8-9.5.2-4,6.3-9.7,18.4-17,6.4-11.4,14.5-29.8,24.4-55.2,7.9-20.2,13.1-34.4,15.5-42.6-5.4-8.7-11-14.7-16.7-17.9-2.2-1.2-4.1-1.8-5.7-1.8-3.3,0-7.8,2.1-13.4,6.3-1.5,1.1-2.9,1.6-4.3,1.6s-2.7-.8-2.7-2.5.8-2.9,2.5-4.4c8.6-8.2,13.9-13.2,15.9-14.7,4.4-3.5,8.1-5.1,11.1-4.7,4.7.5,11,6.2,18.7,16.9,1.6-4,2.1-7.2,1.4-9.3,0-.4-.1-.7-.1-1.1,0-1,.4-1.5,1.3-1.5,1.5,0,3.7,1.3,6.8,3.9,1.6,1.3,2.3,3.2,2.3,5.5s-.5,4.4-1.5,7.5c-.9,2.3-1.7,4.6-2.5,6.9,10.6,14.8,21.5,32.5,32.8,53,10.3,19,17.3,33.6,20.9,43.8,2.7-17.7,9.3-46.8,19.8-87.5-1.9-1.2-4.4-3.2-7.4-5.7-1.3-1.4-2-2.6-2-3.5,0-1.3,1.3-1.9,4-1.7,2.7.2,9.3-6.4,19.9-19.9,2.4-3,4.4-4.4,6.1-4.4s5.2,2.1,8.8,6.2Z"/>
    <path class="cls-4" d="M2261.3,142c.6,3.3.9,5.8.9,7.4s-.5,3.2-1.4,4.2c-.2.2-1.7,1.3-4.6,3.5-2.3,1.8-5.8,2.1-10.3.9-14.4-3.7-30.8-7-49.3-10-5.3,21.5-9.2,37.7-11.7,48.6,8.6-.7,23.2-1.6,44-2.7,4.4,0,7.3,1.4,8.8,4.3.2.5.9,3.1,2,7.9,0,.6.1,1.2.1,1.6,0,2.6-3.1,4.5-9.2,5.5-6.5,1.2-10.3.8-11.2-1.1-1.1-2.3-3.2-3.5-6.3-3.5-17.3,0-27.9.4-31.8,1.1l-9.3,29.1c-2.7,7.9-5.1,13.4-7.2,16.5-2.1,3.1-5.4,6.2-10,9.4,2.7-.2,5.7-.2,8.9-.2,12.8,0,34.1,1.3,63.7,4,2.4.2,3.9-1,4.4-3.6.5-2.6,1.3-3.9,2.4-4,2.1-.2,3.4.7,4,2.6.8,3.3,1.8,7.8,3.2,13.4.4,1.6-.3,3.2-2.1,4.8-1.7,1.3-3.3,2.6-4.9,4-1.6,1.3-3,1.9-4.2,1.9-.3,0-2.6-.7-6.8-1.8-16.7-4.5-35.5-6.8-56.3-6.8s-17.6.4-27.3,1.1c-6.5,5.7-10.6,8.5-12.3,8.5s-2.2-1-2.6-3c-1.5-7.3-2.2-11.4-2.2-12.3,0-3,1.7-4.9,5-6,3-.9,9.8-1.6,20.3-2.1,8.2-15.1,14.5-30,18.9-44.7-.5-1.4-1.7-4.2-3.6-8.4-1.2-2.8-1.8-4.8-1.8-6.1,0-3,3-5.2,9-6.7,1.2-.3,2.5-.6,3.9-.9,3.6-13.7,8-31.2,13.3-52.5-11.1-1.9-19.4-2.9-24.7-2.9s-7.2.2-10.9.7c-8.6,1.2-12.8,7-12.8,17.2s.9,10.3,2.6,17c.8,3,.1,4.6-2,4.6s-2.5-.9-3-2.8c-3.3-10.7-4.9-19.8-4.9-27.1s.8-10.2,2.3-15.1c2.3-7.2,9-10.7,20.2-10.7s20.6,1.6,37.1,4.8c4-3,6.8-4.4,8.4-4.4s1.6.7,1.6,2.1-.3,2.4-.9,4.2c3.1.9,18.5,4.5,46.1,10.7,3.6.9,6.4-.5,8.4-4,.9-1.2,1.8-1.9,2.9-1.9,1.6,0,2.6,1.2,3,3.7Z"/>
    <path class="cls-4" d="M2367.2,250.8c0,14.1-7.2,25.4-21.5,34-4.1,6.5-9.5,9.6-16,9.6-11.6-.2-24.5-5.3-38.8-15.5-12.2-8.7-20.7-17.1-25.3-25.2-4.4-7.5-6.7-12.3-6.7-14.2s1.8-5.1,5.3-8.2c3.3-2.9,5.8-4.3,7.7-4.3s2.7,1.2,2.7,3.5-.2,2.3-.6,3.7c4.1,11.2,12.8,21.6,26.1,31.3,13.3,9.7,25.4,14.4,36.2,14.4,9.6,0,14.4-6.6,14.4-19.6s-5.6-21.5-16.8-42.9c-11.2-21.4-16.8-36.8-16.8-46s1.7-11.5,5.1-16.2c2.9-4,7.9-8.7,15.2-14.1,1.3-1,2.6-1.5,4-1.5,2.1,0,3.2.9,3.2,2.7s-.7,2.5-2.1,3.9c-6,5.7-9,12.6-9,20.8s5.6,24.1,16.8,45.1c11.2,20.9,16.8,34,16.8,39.1ZM2402.1,143.7c-3,10.7-7.2,19.9-12.4,27.8-2.3,3.5-4.6,5.3-6.7,5.3s-5.6-1.7-10.6-5c-1.6-1-2.3-2.1-2.3-3.2,0-1.6,1.4-2.8,4.1-3.5,2-.6,4.3-4.2,6.9-10.6,2.4-6.1,3.6-11,3.6-14.5s-1.4-5.5-4.3-5.5-2.3.2-3.9.5c-3,.5-9.6,2.5-19.6,6.2-1.2.4-2.2.6-3.2.6-2.3,0-3.5-.8-3.5-2.3s1.2-2.8,3.6-4c8.7-4.4,17.3-8,25.8-11,2.7-1,4.7-1.5,5.8-1.5,1.8,0,4.1,2.5,7,7.5,4.4,1.3,7,2.3,8.1,2.9,1.7,1,2.6,2.6,2.6,4.7s-.4,3.4-1.1,5.7Z"/>
  </g>
</svg>