<?xml version="1.0" encoding="UTF-8"?>
<svg id="Capa_1" data-name="Capa 1" xmlns="http://www.w3.org/2000/svg" version="1.1" viewBox="0 0 3716.4 370.1">
  <defs>
    <style>
      .cls-1 {
        fill: #1a9dd9;
      }

      .cls-1, .cls-2, .cls-3 {
        stroke-width: 0px;
      }

      .cls-4 {
        stroke: #179cd9;
        stroke-miterlimit: 10;
        stroke-width: 7px;
      }

      .cls-4, .cls-2 {
        fill: #179cd9;
      }

      .cls-3 {
        fill: #fff;
      }
    </style>
  </defs>
  <g>
    <path class="cls-1" d="M367.8,58.1c-12-7.9-21.6-11.6-28.8-11.1-12,.9-25.9,22.8-41.8,65.6-9.8,26.7-18.6,55.4-26.3,86.1-32.3,2.6-64.5,2.2-96.8-1.1,12.8-34.8,22-59.4,27.6-73.7,11.6-33,17.4-52.9,17.4-59.5s-1-6.1-2.8-7.7c-5.1-4.1-8.5-6.1-10.3-6.1s-2.9,2.4-5.3,6.1c-1.8,2.8-7.9,12.1-16.6,17.5-4.2,2.6-6.2,3.9-7.8,4.5-3,1.1-5.8,1.6-6.6,3.8-.4,1-.3,2,0,2.6.6,1,1.3,1.4,1.7,1.6,1,.5,1.9.3,5.6-.4,1.7-.3,2.6-.5,2.6-.5,3.6-.9,5.5-1.3,8-2.1,2.4-.8,5.3-1.9,8.6-3.5-2.4,10.6-8.1,29.4-17.3,56.4-8.8,25.9-16.1,45.8-21.9,59.7-16.7-.5-25.1,3.4-25.1,11.9s3.1,12.8,9.4,26.8c-6.3,19.1-12.9,33.1-19.9,41.9.5-2.4-.8-5.4-3.7-8.8-4.3-5.2-7.2-7.8-8.7-7.8s-3.2,1.9-3.2,5.7c0,8.3-.1,13-.4,14.2-4,9.6-7.6,17.2-10.7,22.8-1.7,3.8-2.5,6.8-2.5,9,0,3.8,5.9,7.8,17.8,12.1,5.3,1.9,9.8-.3,13.5-6.7,4-6.9,10.9-21.6,20.7-44.1,9.8-22.5,17.2-40.9,22.3-55,22.1-4.2,55.3-4.8,99.8-1.9-8.4,39.2-12.6,66.4-12.6,81.7s1.2,12.9,3.6,14.4c8.9,5.2,14.4,7.8,16.4,7.8s4.4-3.8,5.3-11.5c.9-6.6,3.7-16.1,8.2-28.3.2-.8,3.6-9.4,10.1-26,.9-2.7,1.4-4.8,1.4-6.3s-.7-3.1-2.1-3.1c-2.5,0-4.9,2.2-7.3,6.5l-12.1,22.8c12-57.9,25-105.8,39-143.7,11-29.9,20.8-49.1,29.2-57.8,3.6-3.6,7.2-5.6,11-6.1-1.4.3,1.5.4,8.7.4s7.1-1.2,7.1-3.6-1.4-3.6-4.3-5.4Z"/>
    <path class="cls-2" d="M113.3,328.7c-1.9,0-3.6-.4-4.9-.9-14.1-5-20.4-9.9-20.4-15.8s.9-6.2,2.8-10.6l.2-.3c2.9-5.4,6.4-12.7,10.3-21.9,0-.9.2-3.7.2-13.1s5.5-9.7,7.2-9.7c2.6,0,5.5,1.6,11.8,9.3.7.9,1.4,1.7,1.9,2.5,4.9-8.1,9.8-19.1,14.4-32.8-8.2-18.4-9.1-24.2-9.1-27s1.4-7.3,4-9.8c4.2-4.1,11.5-6.1,22.3-6.1h.1c5.6-13.6,12.6-32.8,20.8-56.9,7.1-21.2,12.2-37.4,15.2-48.4-.5.2-1,.4-1.6.5-2.5.8-4.4,1.3-7.7,2h-.6c0,.1-.9.4-2.8.7-4,.8-5.9,1.1-8.1,0-1.3-.6-2.5-1.6-3.3-3l-.4-.6-.2-.6c-.5-1.8-.4-3.5.3-5.1,1.4-3.5,4.7-4.6,7.4-5.5.5-.2,1-.3,1.5-.5,1.2-.5,3.3-1.8,7.1-4.1,5.3-3.3,10.5-8.8,15.4-16.3.6-.8,1-1.7,1.4-2.4,1.5-2.5,3.3-5.6,7.3-5.6s5.1.8,12.8,7c2.9,2.3,4.3,6,4.3,10.8s-1.8,15.8-17.7,60.8h0c-5.3,13.6-13.9,36.7-25.8,68.9,29.3,2.7,58.9,3,88.1.9,7.5-29.7,16.2-57.9,25.8-83.7,16.9-45.5,31.3-67.2,45.3-68.2,8.2-.6,18.5,3.3,31.3,11.7,4,2.6,6.1,5.5,6.1,8.7s-1.1,7.6-11.1,7.6-5.3,0-6.9,0c-.7,0-1.5,0-2.3-.2-2.6.6-5.2,2.2-7.8,4.8-8,8.2-17.5,27.2-28.3,56.4-11.6,31.3-22.6,70-32.8,115.4,1.8-2.7,4.9-6.4,9.5-6.4s6.1,2.2,6.1,7.1-.5,4.5-1.7,7.6h0c-8.3,21.3-9.9,25.4-10.1,25.9v.2c-4.4,11.9-7.1,21.2-8,27.5-.5,4-1.9,14.9-9.3,14.9s-5.8-1-18.4-8.4c-3.8-2.3-5.5-7.7-5.5-17.8,0-14.9,4-41.2,11.8-78-40.2-2.5-71.1-1.9-92,1.7-5.1,13.9-12.4,31.7-21.6,53.1-9.9,22.9-16.8,37.4-20.9,44.5-4.3,7.4-9.3,9.3-13.4,9.3ZM96,312s.8,3.2,15.1,8.3c1.6.6,4.9,1.7,8.7-4.9,4-6.8,10.9-21.5,20.5-43.7,9.7-22.3,17.2-40.7,22.2-54.8l.8-2.1,2.2-.4c22.3-4.3,56.2-4.9,100.8-2l4.6.3-1,4.5c-8.3,38.7-12.5,65.9-12.5,80.9s1.5,10.7,1.7,10.9c8.9,5.2,12.4,6.7,13.7,7.1.4-.8,1.3-2.8,1.9-7.8,1-7,3.7-16.5,8.4-29.1.2-.6,1.1-3.1,10.2-26.1.2-.6.4-1.2.5-1.7-.4.6-.8,1.2-1.3,2.1l-25.2,47.4,5.7-27.4c12-57.8,25.1-106.4,39.1-144.3,11.3-30.7,21.2-50,30.1-59.2,4.2-4.2,8.7-6.7,13.4-7.3l1.2,7.9c1.2-.2,3-1.6,2.9-3.9s-1.9-3.6-3.2-3.8c.3,0,1.6.1,8.2.1s2,0,2.6-.2c-.4-.4-.9-.8-1.9-1.4h0c-11.2-7.4-20-10.9-26.3-10.5-5.7.4-18.4,9.2-38.3,63-9.7,26.4-18.6,55.2-26.2,85.7l-.7,2.8-2.9.2c-32.4,2.6-65.2,2.2-97.5-1.2l-5.1-.5,1.8-4.8c12.8-34.7,22-59.5,27.6-73.7,14.2-40.4,17.2-53.9,17.2-58.1s-.2-3.6-1.4-4.5c-4.2-3.4-6.4-4.6-7.3-5-.3.4-.6.9-.8,1.4-.5.8-1,1.7-1.6,2.7-2.1,3.2-8.4,12.8-17.8,18.7-3.3,2.1-5.3,3.3-7,4.2,3.1-.7,4.8-1.1,6.9-1.8,2.8-.9,5.5-2,8.1-3.3l7.5-3.7-1.8,8.1c-2.4,10.7-8.2,29.8-17.4,56.9-8.8,25.9-16.2,46-22,60l-1.1,2.5h-2.8c-12.4-.5-17.4,1.8-19.4,3.7-1.1,1.1-1.6,2.4-1.6,4.1s1.2,7.5,9.1,25.2l.6,1.4-.5,1.5c-6.4,19.5-13.3,34-20.6,43.1l-10.2,12.8,3.1-16.1c.2-.8-.5-2.7-2.8-5.4h0c-2.3-2.9-3.8-4.5-4.8-5.4,0,.2,0,.4,0,.7,0,11.3-.2,13.9-.4,15v.4c0,0-.2.4-.2.4-4,9.6-7.7,17.3-10.8,23-1.8,4.2-2.1,6.3-2.1,7.2h0Z"/>
  </g>
  <g>
    <path class="cls-4" d="M223.3,283.8c-17.3-21.5-31.8-45-47.7-67.5-1.1-1.5-1.9-2.7-2.3-3.3-.7-1.1-1.5-1.8-2.2-2.4-5.3-4.1-13-1.2-14.1-.8-.4.1-.9.2-1.4.2-.4,0-.8,0-1.2,0-8,1.2-17.6,3.4-18,7.3-.4,3.3,6.6,5.3,15.3,10.8,9.2,5.8,16.6,15.1,31.6,33.6,8.4,10.4,14.8,19.6,18,24.5,3.1,4.8,4.7,7.1,4.9,7.5,4,7.1,4.1,11.3,7.3,11.3s4.7-.5,8.2-1.6c4.7-1.5,7.1-3.4,7.1-5.7,0-5.2-3.2-11.2-5.3-13.9Z"/>
    <path class="cls-4" d="M274.4,109.6c-5.8-3.7-10.3-4.7-13.5-3.2-2.6,1.3-4.5,4.5-5.9,9.8-4.4,7.1-16.3,18.6-35.7,34.4-19.4,15.8-37.9,29.4-55.5,40.5-3.4,2.1-5,3.8-4.9,5.1.3.7,2,2.3,5.2,5,.2.2.5.4.7.6,1,.3,1.9.6,3.1.6,1.1-.3,2.3-.6,3.5-.9,1.1-.5,2.2-.9,3.3-1.2,0,0,.3-.1.5-.2,2-.8,3.9-.3,4.3-.2,3.2.7,12.5-4.2,13.5-4.7,7.2-3.8,13.6-7.8,18.5-11,24.8-19.5,45.2-36.3,61.3-50.3,9-8.2,12.8-13.7,11.4-16.5-.7-1.5-4-4-9.8-7.7Z"/>
  </g>
  <path class="cls-2" d="M357.8,70.8c3.2,0,3.2-5,0-5s-3.2,5,0,5h0Z"/>
  <path class="cls-2" d="M359.6,69.6c3.2,0,3.2-5,0-5s-3.2,5,0,5h0Z"/>
  <path class="cls-2" d="M357.5,70.8c3.2,0,3.2-5,0-5s-3.2,5,0,5h0Z"/>
  <g>
    <path class="cls-3" d="M555.3,283.7c-14.4,0-27.7-2.4-39.9-7.2-12.2-4.8-22.8-11.6-31.7-20.4-8.9-8.8-15.9-19.1-20.9-30.9-5-11.9-7.5-24.8-7.5-38.8s2.5-27,7.5-38.8c5-11.9,12-22.2,21.1-30.9,9-8.8,19.7-15.5,31.9-20.4,12.2-4.8,25.5-7.2,39.9-7.2s26.9,2.3,39.1,7c12.2,4.7,22.5,11.6,30.9,20.9l-12.9,12.9c-7.8-8-16.5-13.8-26-17.4-9.5-3.6-19.7-5.3-30.6-5.3s-22.2,2-32,5.9c-9.8,3.9-18.4,9.5-25.7,16.7-7.3,7.2-13,15.6-17.1,25.2-4.1,9.6-6.2,20.1-6.2,31.6s2.1,22,6.2,31.6c4.1,9.6,9.8,18,17.1,25.2,7.3,7.2,15.9,12.8,25.7,16.7,9.8,3.9,20.5,5.9,32,5.9s21.2-1.8,30.6-5.5c9.5-3.6,18.1-9.5,26-17.5l12.9,12.9c-8.4,9.3-18.7,16.3-30.9,21.1-12.2,4.7-25.4,7.1-39.4,7.1Z"/>
    <path class="cls-3" d="M748.5,283.7c-14.4,0-27.8-2.4-40.1-7.2-12.3-4.8-23-11.7-32-20.5-9-8.8-16.1-19.2-21.1-30.9-5-11.8-7.5-24.7-7.5-38.7s2.5-26.9,7.5-38.7c5-11.8,12-22.1,21.1-30.9,9-8.8,19.7-15.7,31.9-20.5,12.2-4.8,25.6-7.2,40.2-7.2s27.7,2.4,39.9,7.2c12.2,4.8,22.8,11.6,31.9,20.4,9,8.8,16,19.1,21.1,30.9,5,11.9,7.5,24.8,7.5,38.8s-2.5,27-7.5,38.8c-5,11.9-12,22.2-21.1,30.9-9,8.8-19.7,15.6-31.9,20.4-12.2,4.8-25.5,7.2-39.9,7.2ZM748.5,265.6c11.5,0,22.1-2,31.9-5.9,9.8-3.9,18.2-9.5,25.4-16.7s12.8-15.6,16.8-25.2c4-9.6,6-20.1,6-31.6s-2-22-6-31.6c-4-9.6-9.6-18-16.8-25.2-7.2-7.2-15.7-12.8-25.4-16.7-9.8-3.9-20.4-5.9-31.9-5.9s-22.2,2-32,5.9c-9.8,3.9-18.4,9.5-25.6,16.7-7.2,7.2-12.9,15.6-17,25.2-4.1,9.6-6.2,20.1-6.2,31.6s2.1,21.8,6.2,31.5c4.1,9.7,9.8,18.1,17,25.3,7.2,7.2,15.7,12.8,25.6,16.7,9.8,3.9,20.5,5.9,32,5.9Z"/>
    <path class="cls-3" d="M894.3,282V90.5h16.7l132.1,166.3h-8.8V90.5h20v191.5h-16.7l-131.9-166.3h8.8v166.3h-20.2Z"/>
    <path class="cls-3" d="M1169.5,283.7c-14.2,0-27.9-2.3-40.9-7-13-4.7-23.1-10.6-30.2-17.9l7.9-15.6c6.7,6.6,15.8,12.1,27.2,16.6,11.4,4.5,23.4,6.7,36,6.7s21.8-1.5,29.4-4.5c7.6-3,13.1-7.1,16.7-12.2,3.6-5.1,5.3-10.8,5.3-17s-2.1-13.5-6.4-18.1c-4.3-4.6-9.9-8.2-16.8-10.8-6.9-2.6-14.6-5-23-7-8.4-2-16.8-4.1-25.2-6.4-8.4-2.3-16.1-5.3-23.1-9.2-7-3.8-12.7-8.9-17-15.2-4.3-6.3-6.4-14.5-6.4-24.8s2.5-18.2,7.5-26.1c5-7.9,12.7-14.3,23.1-19.2,10.4-4.8,23.7-7.2,39.9-7.2s21.4,1.5,32,4.5c10.6,3,19.7,7.2,27.4,12.4l-6.8,16.1c-8.2-5.5-16.9-9.5-26.1-12-9.2-2.6-18.1-3.8-26.7-3.8s-21,1.6-28.5,4.7c-7.5,3.1-13,7.2-16.6,12.4-3.6,5.2-5.3,11.1-5.3,17.6s2.1,13.5,6.4,18.1c4.3,4.6,9.9,8.1,17,10.7,7,2.6,14.7,4.8,23.1,6.8,8.4,2,16.7,4.2,25,6.6,8.3,2.4,16,5.4,23,9.2,7,3.7,12.7,8.7,17,14.9,4.3,6.2,6.4,14.3,6.4,24.3s-2.6,17.9-7.7,25.9c-5.1,7.9-12.9,14.3-23.4,19.2-10.5,4.8-23.9,7.2-40.4,7.2Z"/>
    <path class="cls-3" d="M1319.4,282V108h-67.3v-17.5h154.8v17.5h-67.3v174h-20.2Z"/>
    <path class="cls-3" d="M1439.2,282V90.5h71.7c16.2,0,30.2,2.6,41.9,7.8,11.7,5.2,20.7,12.7,26.9,22.4,6.3,9.8,9.4,21.6,9.4,35.4s-3.1,25.1-9.4,34.9c-6.3,9.8-15.3,17.2-26.9,22.4-11.7,5.2-25.6,7.8-41.9,7.8h-60.5l9-9.3v70h-20.2ZM1459.5,213.6l-9-9.6h59.9c19.2,0,33.7-4.2,43.6-12.6,9.9-8.4,14.9-20.2,14.9-35.3s-5-27.2-14.9-35.6c-9.9-8.4-24.5-12.6-43.6-12.6h-59.9l9-9.6v115.2ZM1570,282l-49.2-69.5h21.9l49.5,69.5h-22.2Z"/>
    <path class="cls-3" d="M1714.2,283.7c-24.4,0-43.7-7-57.7-21.1-14-14-21.1-34.8-21.1-62.4v-109.7h20.2v108.9c0,22.6,5.1,39.3,15.3,50.1,10.2,10.8,24.6,16.1,43.2,16.1s33.3-5.4,43.5-16.1c10.2-10.8,15.3-27.4,15.3-50.1v-108.9h19.7v109.7c0,27.5-7,48.3-20.9,62.4-14,14-33.2,21.1-57.6,21.1Z"/>
    <path class="cls-3" d="M1936.9,283.7c-14.4,0-27.7-2.4-39.9-7.2-12.2-4.8-22.8-11.6-31.7-20.4-8.9-8.8-15.9-19.1-20.9-30.9-5-11.9-7.5-24.8-7.5-38.8s2.5-27,7.5-38.8c5-11.9,12-22.2,21.1-30.9,9-8.8,19.7-15.5,31.9-20.4,12.2-4.8,25.5-7.2,39.9-7.2s26.9,2.3,39.1,7c12.2,4.7,22.5,11.6,30.9,20.9l-12.9,12.9c-7.8-8-16.5-13.8-26-17.4-9.5-3.6-19.7-5.3-30.6-5.3s-22.2,2-32,5.9c-9.8,3.9-18.4,9.5-25.7,16.7-7.3,7.2-13,15.6-17.1,25.2-4.1,9.6-6.2,20.1-6.2,31.6s2.1,22,6.2,31.6c4.1,9.6,9.8,18,17.1,25.2,7.3,7.2,15.9,12.8,25.7,16.7,9.8,3.9,20.5,5.9,32,5.9s21.2-1.8,30.6-5.5c9.5-3.6,18.1-9.5,26-17.5l12.9,12.9c-8.4,9.3-18.7,16.3-30.9,21.1-12.2,4.7-25.4,7.1-39.4,7.1Z"/>
    <path class="cls-3" d="M2129.5,283.7c-14.4,0-27.7-2.4-39.9-7.2-12.2-4.8-22.8-11.6-31.7-20.4-8.9-8.8-15.9-19.1-20.9-30.9-5-11.9-7.5-24.8-7.5-38.8s2.5-27,7.5-38.8c5-11.9,12-22.2,21.1-30.9,9-8.8,19.7-15.5,31.9-20.4,12.2-4.8,25.5-7.2,39.9-7.2s26.9,2.3,39.1,7c12.2,4.7,22.5,11.6,30.9,20.9l-12.9,12.9c-7.8-8-16.5-13.8-26-17.4-9.5-3.6-19.7-5.3-30.6-5.3s-22.2,2-32,5.9c-9.8,3.9-18.4,9.5-25.7,16.7-7.3,7.2-13,15.6-17.1,25.2-4.1,9.6-6.2,20.1-6.2,31.6s2.1,22,6.2,31.6c4.1,9.6,9.8,18,17.1,25.2,7.3,7.2,15.9,12.8,25.7,16.7,9.8,3.9,20.5,5.9,32,5.9s21.2-1.8,30.6-5.5c9.5-3.6,18.1-9.5,26-17.5l12.9,12.9c-8.4,9.3-18.7,16.3-30.9,21.1-12.2,4.7-25.4,7.1-39.4,7.1Z"/>
    <path class="cls-3" d="M2243,282V90.5h20.2v191.5h-20.2Z"/>
    <path class="cls-3" d="M2409.3,283.7c-14.4,0-27.8-2.4-40.1-7.2-12.3-4.8-23-11.7-32-20.5-9-8.8-16.1-19.2-21.1-30.9-5-11.8-7.5-24.7-7.5-38.7s2.5-26.9,7.5-38.7c5-11.8,12-22.1,21.1-30.9,9-8.8,19.7-15.7,31.9-20.5,12.2-4.8,25.6-7.2,40.2-7.2s27.7,2.4,39.9,7.2c12.2,4.8,22.8,11.6,31.9,20.4,9,8.8,16,19.1,21.1,30.9,5,11.9,7.5,24.8,7.5,38.8s-2.5,27-7.5,38.8c-5,11.9-12,22.2-21.1,30.9-9,8.8-19.7,15.6-31.9,20.4-12.2,4.8-25.5,7.2-39.9,7.2ZM2409.3,265.6c11.5,0,22.1-2,31.9-5.9,9.8-3.9,18.2-9.5,25.4-16.7s12.8-15.6,16.8-25.2c4-9.6,6-20.1,6-31.6s-2-22-6-31.6c-4-9.6-9.6-18-16.8-25.2-7.2-7.2-15.7-12.8-25.4-16.7-9.8-3.9-20.4-5.9-31.9-5.9s-22.2,2-32,5.9c-9.8,3.9-18.4,9.5-25.6,16.7-7.2,7.2-12.9,15.6-17,25.2-4.1,9.6-6.2,20.1-6.2,31.6s2.1,21.8,6.2,31.5c4.1,9.7,9.8,18.1,17,25.3,7.2,7.2,15.7,12.8,25.6,16.7,9.8,3.9,20.5,5.9,32,5.9Z"/>
    <path class="cls-3" d="M2555.2,282V90.5h16.7l132.1,166.3h-8.8V90.5h20v191.5h-16.7l-131.9-166.3h8.8v166.3h-20.2Z"/>
    <path class="cls-3" d="M2797.8,264.5h115.2v17.5h-135.4V90.5h131.3v17.5h-111.1v156.5ZM2795.6,176.2h101.2v17.2h-101.2v-17.2Z"/>
    <path class="cls-3" d="M3013.4,283.7c-14.2,0-27.9-2.3-40.9-7-13-4.7-23.1-10.6-30.2-17.9l7.9-15.6c6.7,6.6,15.8,12.1,27.2,16.6,11.4,4.5,23.4,6.7,36,6.7s21.8-1.5,29.4-4.5c7.6-3,13.1-7.1,16.7-12.2,3.6-5.1,5.3-10.8,5.3-17s-2.1-13.5-6.4-18.1c-4.3-4.6-9.9-8.2-16.8-10.8-6.9-2.6-14.6-5-23-7-8.4-2-16.8-4.1-25.2-6.4-8.4-2.3-16.1-5.3-23.1-9.2-7-3.8-12.7-8.9-17-15.2-4.3-6.3-6.4-14.5-6.4-24.8s2.5-18.2,7.5-26.1c5-7.9,12.7-14.3,23.1-19.2,10.4-4.8,23.7-7.2,39.9-7.2s21.4,1.5,32,4.5c10.6,3,19.7,7.2,27.4,12.4l-6.8,16.1c-8.2-5.5-16.9-9.5-26.1-12-9.2-2.6-18.1-3.8-26.7-3.8s-21,1.6-28.5,4.7c-7.5,3.1-13,7.2-16.6,12.4-3.6,5.2-5.3,11.1-5.3,17.6s2.1,13.5,6.4,18.1c4.3,4.6,9.9,8.1,17,10.7,7,2.6,14.7,4.8,23.1,6.8,8.4,2,16.7,4.2,25,6.6,8.3,2.4,16,5.4,23,9.2,7,3.7,12.7,8.7,17,14.9,4.3,6.2,6.4,14.3,6.4,24.3s-2.6,17.9-7.7,25.9c-5.1,7.9-12.9,14.3-23.4,19.2-10.5,4.8-23.9,7.2-40.4,7.2Z"/>
  </g>
</svg>